<svg id="f1ea213e-2a7d-4eb9-ba9d-72415e761922" data-name="Layer 1" xmlns="http://www.w3.org/2000/svg" viewBox="0 0 49.29861 49.29449"><defs><style>.fc25bd7f-927b-4d19-acca-4010d327fd08{fill:#414042;}</style></defs><path class="fc25bd7f-927b-4d19-acca-4010d327fd08" d="M28.81375,11.81651,26.20151,35.31817a1.08262,1.08262,0,0,0,1.15919,1.14368h1.11964a1.14146,1.14146,0,0,0,1.1433-.81027l5.304-22.15211A21.76441,21.76441,0,0,1,46.67047,32.83308v2.04079h.64318a1.985,1.985,0,0,1,0,3.96993H1.985a1.985,1.985,0,0,1,0-3.96993h1.0958V32.83308a21.78762,21.78762,0,0,1,10.44878-18.611L18.6509,35.65158a1.15512,1.15512,0,0,0,1.14329.81027h1.1274a1.08252,1.08252,0,0,0,1.15919-1.14368L19.3813,11.81651a.23319.23319,0,0,0-.01589-.07172c.01589-.00775.02384-.01589.03974-.01589l-.00795-.10313A1.07854,1.07854,0,0,1,20.469,10.45069l7.273.07133a1.07311,1.07311,0,0,1,1.04812.87346"/></svg>