<svg id="aa4d8a06-9503-42be-abaf-0958087b5fa1" data-name="Layer 1" xmlns="http://www.w3.org/2000/svg" viewBox="0 0 49.29861 49.29449"><defs><style>.e2d790d6-2452-41cb-84b7-fd4aad77de21{fill:#414042;}</style></defs><path class="e2d790d6-2452-41cb-84b7-fd4aad77de21" d="M24.2496,22.505a9.92677,9.92677,0,0,1,.495,5.048c-.35347,1.27235-.65032,2.54469-.90472,3.6617-.11322.29686-.21229.57991-.32551.84846l-3.25162-7.9323a1.22366,1.22366,0,0,0-2.26233.93338l3.252,7.93229c-2.41766-1.0604-5.89572-3.06867-7.225-6.30648-1.66827-4.07178.43838-9.13353,1.41387-11.11281C17.53373,16.31247,22.58133,18.43327,24.2496,22.505Z"/><path class="e2d790d6-2452-41cb-84b7-fd4aad77de21" d="M35.8719,24.27238c.08491,1.739-.04246,5.41522-2.14911,7.52222C32.18155,33.35,29.7922,33.816,27.94,33.92921l3.9589-3.95856A1.21979,1.21979,0,0,0,30.174,28.24543L26.21507,32.204c0-.14083.01415-.28235.0283-.42388.2544-1.117.56541-2.34724.89058-3.57678A5.87839,5.87839,0,0,1,28.35,26.42149C30.45667,24.31518,34.13287,24.18746,35.8719,24.27238Z"/><path class="e2d790d6-2452-41cb-84b7-fd4aad77de21" d="M45.68406,10.43056c-.12737-1.78115-1.55539-3.6334-3.32273-3.36484C32.01207,8.6073,29.21264,2.69708,26.922.81653a3.62073,3.62073,0,0,0-4.58091,0C20.06461,2.69708,16.78468,8.6073,6.90141,7.06572,5.13408,6.79716,3.72021,8.64941,3.579,10.43056c-.56575,7.4373-1.69657,31.09128,19.158,38.51409a5.3059,5.3059,0,0,0,3.78907,0C47.72,40.95644,46.26362,17.86786,45.68406,10.43056ZM35.46182,33.53363C33.00171,35.9934,29.25475,36.418,26.93616,36.418h-2.05c-.57991-.0283-1.76734-.156-1.76734-.156-.35347-.08422-8.78006-2.361-11.3534-8.63854-2.57334-6.2913,1.8381-13.82732,2.02173-14.13868a1.24526,1.24526,0,0,1,1.35726-.56541c.36762.09872,8.79457,2.37486,11.36756,8.653a10.09125,10.09125,0,0,1,.67863,2.6013c3.76111-3.08248,9.72759-2.29064,9.99614-2.24783a1.199,1.199,0,0,1,1.0321,1.03209C38.26125,23.24028,39.15182,29.84294,35.46182,33.53363Z"/></svg>