<svg id="fd2ea99f-f858-4a25-9918-3d5872db12be" data-name="Layer 1" xmlns="http://www.w3.org/2000/svg" viewBox="0 0 49.29861 49.29449"><defs><style>.b8839eaa-2726-4448-9dbc-44a7b5817655{fill:#414042;}</style></defs><path class="b8839eaa-2726-4448-9dbc-44a7b5817655" d="M42.4871,22.3879c-.5602-1.7276-1.882-3.24292-2.79131-4.86961a.64624.64624,0,0,0-1.17373.09583c-.75753,2.09445-2.29057,5.05462-4.36612,4.235-2.15888-.85375-3.97293-5.04149-4.76913-6.73023C27.32892,10.7573,26.38886,5.57966,28.12422,1.025a.65107.65107,0,0,0-.85355-.83811C19.84778,3.17462,13.57114,9.49958,12.10944,16.27848a.64489.64489,0,0,1-1.22268.1221l-.02658-.06349a.652.652,0,0,0-1.24631.23915c-.25921,4.42193-2.43929,8.47863-3.45849,12.85858C3.97562,38.79917,13.03308,49.747,25.56477,49.13235,41.06262,48.37238,45.74949,32.44275,42.4871,22.3879ZM32.24385,40.32168c-2.04293,3.06845-6.25284,4.69752-10.47128,3.93669a10.50422,10.50422,0,0,1-8.60437-8.364c-.34619-1.92328.24976-3.49968.73773-5.15814a.64379.64379,0,0,1,1.03648-.321,2.5,2.5,0,0,0,1.5909.63036,8.7382,8.7382,0,0,1,1.18024-8.16067,12.72972,12.72972,0,0,1,7.02217-4.61576.65312.65312,0,0,1,.82218.76973,12.70444,12.70444,0,0,0,3.14992,11.68276,1.07854,1.07854,0,0,0,.63679.40663,1.17914,1.17914,0,0,0,.68666-.18243,5.39163,5.39163,0,0,0,1.14366-.81667.65243.65243,0,0,1,1.01924.16365A9.44723,9.44723,0,0,1,32.24385,40.32168Z"/></svg>