<svg id="a8feb4b3-1184-4070-a7a5-036d35387019" data-name="Layer 1" xmlns="http://www.w3.org/2000/svg" viewBox="0 0 49.29861 49.29449"><defs><style>.bbb81709-8276-40f8-9e0f-5716b1e8028e{fill:#414042;}</style></defs><path class="bbb81709-8276-40f8-9e0f-5716b1e8028e" d="M37.662,39.06166a4.78414,4.78414,0,1,1,4.78338-4.78389A4.78884,4.78884,0,0,1,37.662,39.06166Z"/><path class="bbb81709-8276-40f8-9e0f-5716b1e8028e" d="M12.934,39.06061a4.78309,4.78309,0,1,1,4.78333-4.78284A4.78779,4.78779,0,0,1,12.934,39.06061Z"/><path class="bbb81709-8276-40f8-9e0f-5716b1e8028e" d="M45.81086,10.23283H16.07058a3.13637,3.13637,0,0,0-3.13637,3.13637h0a.85812.85812,0,0,0,.85812.85812H16.757a2.33373,2.33373,0,0,1,2.33373,2.33373V17.879A2.33373,2.33373,0,0,1,16.757,20.21273H3.48747A3.1361,3.1361,0,0,0,.35138,23.34882V31.3584A3.13582,3.13582,0,0,0,3.4872,34.49422H7.16992c-.00275-.07362-.022-.14229-.022-.21645a5.78627,5.78627,0,1,1,11.57253,0c0,.07416-.019.14283-.0217.21645H31.898c-.00274-.07362-.022-.14229-.022-.21645a5.78627,5.78627,0,1,1,11.57253,0c0,.07416-.01923.14283-.022.21645h2.38483a3.13581,3.13581,0,0,0,3.13582-3.13582V13.3692A3.13637,3.13637,0,0,0,45.81086,10.23283ZM33.85322,18.34377a1.869,1.869,0,0,1-1.869,1.869H24.19882a1.86924,1.86924,0,0,1-1.86924-1.86924V16.09628a1.869,1.869,0,0,1,1.869-1.869h7.78572a1.869,1.869,0,0,1,1.869,1.869Z"/></svg>