<svg id="af54030b-73ba-4af2-9af9-1ca91d0c2604" data-name="Layer 1" xmlns="http://www.w3.org/2000/svg" viewBox="0 0 49.29861 49.29449"><defs><style>.a4b4d4a6-61a3-4574-ac61-06cfc9bf6745{fill:#414042;}</style></defs><path class="a4b4d4a6-61a3-4574-ac61-06cfc9bf6745" d="M11.65915,14.72114a1.337,1.337,0,0,0-1.89074-1.89075L.39173,22.2075a1.337,1.337,0,1,0,1.89074,1.89075Z"/><path class="a4b4d4a6-61a3-4574-ac61-06cfc9bf6745" d="M8.3856,24.64144a1.33641,1.33641,0,0,0,1.84722-.403l6.25156-9.74011a1.337,1.337,0,1,0-2.25027-1.44461L7.98256,22.79379A1.337,1.337,0,0,0,8.3856,24.64144Z"/><path class="a4b4d4a6-61a3-4574-ac61-06cfc9bf6745" d="M16.48351,25.15679a1.33592,1.33592,0,0,0,1.67268-.88226L21.28175,14.171a1.33721,1.33721,0,0,0-2.55495-.79042L15.60125,23.4841A1.33745,1.33745,0,0,0,16.48351,25.15679Z"/><path class="a4b4d4a6-61a3-4574-ac61-06cfc9bf6745" d="M48.90688,22.20707l-9.37711-9.37668A1.33711,1.33711,0,0,0,37.639,14.72157l9.37711,9.37668a1.33711,1.33711,0,1,0,1.89074-1.89118Z"/><path class="a4b4d4a6-61a3-4574-ac61-06cfc9bf6745" d="M39.06535,24.2384a1.33691,1.33691,0,0,0,2.25027-1.44417L35.0645,13.05368a1.337,1.337,0,1,0-2.25026,1.44461Z"/><path class="a4b4d4a6-61a3-4574-ac61-06cfc9bf6745" d="M31.14243,24.27453a1.33721,1.33721,0,1,0,2.55494-.79043L30.57181,13.38055a1.33721,1.33721,0,0,0-2.55494.79042Z"/><path class="a4b4d4a6-61a3-4574-ac61-06cfc9bf6745" d="M24.64931,25.57985a1.33717,1.33717,0,0,0,1.3371-1.3371v-10.467a1.3371,1.3371,0,1,0-2.6742,0v10.467A1.33716,1.33716,0,0,0,24.64931,25.57985Z"/><path class="a4b4d4a6-61a3-4574-ac61-06cfc9bf6745" d="M47.34432,29.18854l-5.0398-1.37322a1.33717,1.33717,0,0,0-.70338,2.58018l2.405.65506a73.63133,73.63133,0,0,1-38.37461.03656l2.53906-.69162a1.33717,1.33717,0,1,0-.70337-2.58018L2.42741,29.18854A1.33711,1.33711,0,0,0,1.489,30.83032l1.37367,5.03981a1.33823,1.33823,0,0,0,1.28922.98585,1.35319,1.35319,0,0,0,.35255-.04744,1.3372,1.3372,0,0,0,.93841-1.64178L5.042,33.696a76.38672,76.38672,0,0,0,19.65259,2.595,77.622,77.622,0,0,0,20.05564-2.67028l-.42133,1.546a1.33717,1.33717,0,1,0,2.58019.70337l1.37366-5.03981a1.33711,1.33711,0,0,0-.93841-1.64178Z"/></svg>