<svg id="f03e7bc7-6e28-4acf-8550-6b8d8a05d847" data-name="Layer 1" xmlns="http://www.w3.org/2000/svg" viewBox="0 0 49.29861 49.29449"><defs><style>.f9481b0d-115b-452f-953c-ce695250ba57{fill:#414042;}</style></defs><path class="f9481b0d-115b-452f-953c-ce695250ba57" d="M32.42149,0H16.87713a1.79935,1.79935,0,0,0-1.79926,1.79926v45.696a1.79935,1.79935,0,0,0,1.79926,1.79926H32.42149a1.79935,1.79935,0,0,0,1.79925-1.79926V1.79926A1.79935,1.79935,0,0,0,32.42149,0ZM18.67638,45.696V3.59851H30.62223V7.962H24.64931a1.79926,1.79926,0,1,0,0,3.59851h5.97292v4.1479H24.64931a1.79926,1.79926,0,1,0,0,3.59851h5.97292V23.4536H24.64931a1.79926,1.79926,0,1,0,0,3.59851h5.97292V31.2H24.64931a1.79926,1.79926,0,1,0,0,3.59851h5.97292v4.14731H24.64931a1.79926,1.79926,0,1,0,0,3.59852h5.97292V45.696Z"/></svg>