<svg id="ebaf83c5-a3ee-4dac-8a0b-6f22f2bbadd3" data-name="Layer 1" xmlns="http://www.w3.org/2000/svg" viewBox="0 0 182.95826 183.90002"><defs><style>.b58febb3-b8a1-4ad9-a7d5-915b880c816f{fill:none;stroke:#fff;stroke-linecap:round;stroke-linejoin:round;stroke-width:5px;}.fd2e0822-1c7a-485b-9b86-663a44b5969c{fill:#f6f6f6;}</style></defs><title>scrolling_icon</title><g id="aa072f67-f672-4d18-930c-0f62b182270c" data-name="Group 28"><path id="e6b85a9f-c88a-4ced-8faa-b89d02a282fc" data-name="Path 73" class="b58febb3-b8a1-4ad9-a7d5-915b880c816f" d="M51.729,52.735l11.1-10.9,11.1,10.9"/><line id="b5621736-addc-4993-9586-c1a73a9632ab" data-name="Line 71" class="b58febb3-b8a1-4ad9-a7d5-915b880c816f" x1="62.829" y1="87.33496" x2="51.729" y2="76.43496"/><line id="b5c6b3b5-fd0a-4abf-bdec-a95753aa87b6" data-name="Line 72" class="b58febb3-b8a1-4ad9-a7d5-915b880c816f" x1="73.929" y1="76.43496" x2="62.829" y2="87.33496"/><line id="e4d788bd-5c86-406d-a31e-109a233058c4" data-name="Line 73" class="b58febb3-b8a1-4ad9-a7d5-915b880c816f" x1="62.829" y1="41.83496" x2="62.829" y2="85.53496"/></g><g id="b93e0253-3b69-4a6a-bb67-892a2e5331ce" data-name="Group 31"><g id="afb6ef60-4a66-474b-ac58-774f4b36890f" data-name="Group 30"><g id="b6410ff6-e9a7-45d6-b9f6-64592b65e6bf" data-name="Group 29"><line id="ad1426dd-3d1d-4251-bcec-3bea836f4cb2" data-name="Line 74" class="b58febb3-b8a1-4ad9-a7d5-915b880c816f" x1="96.74601" y1="98.06496" x2="96.74601" y2="105.26496"/><path id="f1553fd5-ad64-42a8-8009-9fd1b1cfbd88" data-name="Path 74" class="b58febb3-b8a1-4ad9-a7d5-915b880c816f" d="M85.446,112.265v-34.8a5.67683,5.67683,0,0,1,5.7-5.6,5.94612,5.94612,0,0,1,4,1.6,5.38287,5.38287,0,0,1,1.7,3.9v14.1"/><line id="bd0c57ef-ebed-4069-b8cf-cde4a1e209de" data-name="Line 75" class="b58febb3-b8a1-4ad9-a7d5-915b880c816f" x1="119.44601" y1="102.06496" x2="119.44601" y2="109.26496"/><path id="bc157448-3e91-4dc8-bba4-7930cfdd3446" data-name="Path 75" class="b58febb3-b8a1-4ad9-a7d5-915b880c816f" d="M85.446,112.265l-8.7-8.7a5.67348,5.67348,0,0,0-8,0,5.5224,5.5224,0,0,0-.1,7.8l.1.1,14.3,14,8.1,7.3h39.7v-31.7a5.67683,5.67683,0,0,0-5.7-5.6h0a5.94612,5.94612,0,0,0-4,1.6,5.3829,5.3829,0,0,0-1.7,3.9"/><path id="b3722ce0-1be1-44f8-ad91-f432cb9021f9" data-name="Path 76" class="b58febb3-b8a1-4ad9-a7d5-915b880c816f" d="M108.146,96.565v-5a5.67683,5.67683,0,0,0-5.7-5.6,5.94612,5.94612,0,0,0-4,1.6,5.3829,5.3829,0,0,0-1.7,3.9v6.6"/><path id="a6aafa6e-0e23-4a14-ad62-dfba42b6558b" data-name="Path 77" class="b58febb3-b8a1-4ad9-a7d5-915b880c816f" d="M108.146,107.865v-11.3a5.67683,5.67683,0,0,1,5.7-5.6h0a5.9461,5.9461,0,0,1,4,1.6,5.3829,5.3829,0,0,1,1.7,3.9v5.5"/></g></g></g><g id="ef043dee-08f7-4038-86dc-8caf1cf9ddc6" data-name="Ellipse 23"><path class="fd2e0822-1c7a-485b-9b86-663a44b5969c" d="M95.9,183.9a4.50217,4.50217,0,0,1-.2-9,81.212,81.212,0,0,0,19.6-3.3,4.526,4.526,0,0,1,2.5,8.7,87.93889,87.93889,0,0,1-21.7,3.6Zm-28.7-3.4a6.88366,6.88366,0,0,1-1.3-.2,90.61971,90.61971,0,0,1-20.2-8.7,4.52766,4.52766,0,1,1,4.6-7.79993,80.04482,80.04482,0,0,0,18.3,7.8,4.52552,4.52552,0,0,1,3.1,5.6A4.804,4.804,0,0,1,67.2,180.5Zm75.3-12.6a4.69142,4.69142,0,0,1-3.7-1.9,4.52014,4.52014,0,0,1,1.1-6.3,77.81768,77.81768,0,0,0,14.7-13.4,4.46879,4.46879,0,1,1,6.8,5.8,91.66537,91.66537,0,0,1-16.3,14.8A3.87581,3.87581,0,0,1,142.5,167.9Zm-116.7-14.1a4.25488,4.25488,0,0,1-3.4-1.6,92.407,92.407,0,0,1-12.3-18.19995,4.51773,4.51773,0,1,1,8-4.2,86.71181,86.71181,0,0,0,11.1,16.5,4.44867,4.44867,0,0,1-.5,6.3A4.17584,4.17584,0,0,1,25.8,153.80005ZM173.1,129.2a5.07765,5.07765,0,0,1-1.7-.3,4.57356,4.57356,0,0,1-2.5-5.9,80.07906,80.07906,0,0,0,5.1-19.19995,4.4972,4.4972,0,1,1,8.9,1.29992,91.81524,91.81524,0,0,1-5.7,21.30005A4.33894,4.33894,0,0,1,173.1,129.2ZM5.3,109a4.42346,4.42346,0,0,1-4.4-3.9A95.04021,95.04021,0,0,1,0,92a87.03373,87.03373,0,0,1,.4-8.9,4.36,4.36,0,0,1,4.9-4,4.36,4.36,0,0,1,4,4.9,73.22483,73.22483,0,0,0-.4,8.1,92.31107,92.31107,0,0,0,.8,11.8A4.50863,4.50863,0,0,1,5.9,109C5.7,108.9,5.5,109,5.3,109ZM177.9,80.1a4.486,4.486,0,0,1-4.4-3.7,83.201,83.201,0,0,0-6-18.9,4.51886,4.51886,0,0,1,8.2-3.8,91.75891,91.75891,0,0,1,6.7,21,4.52031,4.52031,0,0,1-3.6,5.3A3.44542,3.44542,0,0,1,177.9,80.1ZM12.3,60.1a4.33271,4.33271,0,0,1-1.9-.4,4.42261,4.42261,0,0,1-2.2-6,92.88507,92.88507,0,0,1,11.5-18.8,4.48222,4.48222,0,0,1,7,5.6001A86.27346,86.27346,0,0,0,16.3,57.4,4.16671,4.16671,0,0,1,12.3,60.1Zm143-23.9a4.70543,4.70543,0,0,1-3.3-1.4,84.66143,84.66143,0,0,0-15.3-12.7,4.47941,4.47941,0,0,1,4.9-7.5,95.25839,95.25839,0,0,1,17,14,4.55972,4.55972,0,0,1-.2,6.4A4.302,4.302,0,0,1,155.3,36.2ZM44.6,22.9a4.42748,4.42748,0,0,1-3.8-2.1,4.57719,4.57719,0,0,1,1.3-6.19995,92.81622,92.81622,0,0,1,19.8-9.6,4.42838,4.42838,0,0,1,5.7,2.8,4.42835,4.42835,0,0,1-2.8,5.7,84.65108,84.65108,0,0,0-17.9,8.7A4.45118,4.45118,0,0,1,44.6,22.9Zm68.1-11.4a4.10231,4.10231,0,0,1-1.1-.1A81.72281,81.72281,0,0,0,91.9,9a4.5,4.5,0,0,1,0-9,95.03676,95.03676,0,0,1,21.9,2.6A4.47185,4.47185,0,0,1,117.1,8,4.57061,4.57061,0,0,1,112.7,11.5Z"/></g></svg>